<?xml version="1.0" encoding="UTF-8"?>
<svg version="1.1" xmlns="http://www.w3.org/2000/svg" width="48" height="48">
<path d="M0 0 C3.66953696 3.2931742 6.5033988 6.74653129 9 11 C9 11.99 9 12.98 9 14 C9.66 14 10.32 14 11 14 C11.0289337 17.79165074 11.04677601 21.58327327 11.0625 25.375 C11.07087891 26.45523437 11.07925781 27.53546875 11.08789062 28.6484375 C11.09111328 29.6796875 11.09433594 30.7109375 11.09765625 31.7734375 C11.10289307 32.72653809 11.10812988 33.67963867 11.11352539 34.66162109 C11 37 11 37 10 39 C6.97069641 40.0553181 3.98416818 40.18669083 0.796875 40.31640625 C-0.1828125 40.35830078 -1.1625 40.40019531 -2.171875 40.44335938 C-3.18765625 40.48267578 -4.2034375 40.52199219 -5.25 40.5625 C-6.796875 40.62727539 -6.796875 40.62727539 -8.375 40.69335938 C-10.9165387 40.79925682 -13.45817196 40.90133443 -16 41 C-16.33 41.66 -16.66 42.32 -17 43 C-18.875 42.8125 -18.875 42.8125 -21 42 C-22.25 39.4375 -22.25 39.4375 -23 37 C-22.34 37 -21.68 37 -21 37 C-21.03311279 35.98800537 -21.03311279 35.98800537 -21.06689453 34.95556641 C-21.53987135 14.47742189 -21.53987135 14.47742189 -17.953125 9.3203125 C-15.4358872 6.8107027 -13.01004083 4.88071975 -10 3 C-9.30261719 2.50628906 -8.60523438 2.01257813 -7.88671875 1.50390625 C-4.7626096 -0.53646482 -3.64027841 -1.21342614 0 0 Z M-12.0625 8.125 C-13.41021484 9.27355469 -13.41021484 9.27355469 -14.78515625 10.4453125 C-18.73235388 14.9981648 -18.10081621 19.87248015 -17.73242188 25.5703125 C-17.67634766 26.33085937 -17.62027344 27.09140625 -17.5625 27.875 C-17.48418945 29.050625 -17.48418945 29.050625 -17.40429688 30.25 C-17.27571149 32.1670912 -17.13871383 34.08361503 -17 36 C-15.02 36 -13.04 36 -11 36 C-11 31.05 -11 26.1 -11 21 C-7.04 21 -3.08 21 1 21 C1.66 25.29 2.32 29.58 3 34 C3.99 34 4.98 34 6 34 C7.5995283 22.25103487 7.5995283 22.25103487 4.95263672 11.12207031 C2.1705209 7.94513278 -1.21190923 5.79166456 -5 4 C-8.20520646 4 -9.70033845 6.06533108 -12.0625 8.125 Z M-9 24 C-9 27.96 -9 31.92 -9 36 C-4.545 35.505 -4.545 35.505 0 35 C-0.33 31.37 -0.66 27.74 -1 24 C-3.64 24 -6.28 24 -9 24 Z " fill="#787066" transform="translate(28,5)"/>
</svg>
