<?xml version="1.0" encoding="UTF-8"?>
<svg version="1.1" xmlns="http://www.w3.org/2000/svg" width="48" height="48">
<path d="M0 0 C3 2 3 2 3.68359375 3.765625 C4.06426448 6.45381833 4.09481614 9.03544431 4.0625 11.75 C4.05347656 12.73484375 4.04445313 13.7196875 4.03515625 14.734375 C4.02355469 15.48203125 4.01195313 16.2296875 4 17 C4.763125 16.67 5.52625 16.34 6.3125 16 C9 15 9 15 12 15 C12 15.66 12 16.32 12 17 C9.09399739 18.25664978 7.20395416 19 4 19 C4.103125 19.94875 4.20625 20.8975 4.3125 21.875 C4.21348987 27.24354935 2.84549565 32.14715159 -1 36 C-5.70404534 37.17201583 -10.17403673 37.22203349 -15 37 C-16.49105779 34.01788442 -16.50994661 32.31465295 -16 29 C-12.9211964 25.41370131 -9.25299516 22.99476764 -5 21 C-6.258125 20.608125 -7.51625 20.21625 -8.8125 19.8125 C-11.74800168 18.70064627 -12.89635043 18.11984482 -15 15.6875 C-16.20618366 12.44588143 -16.49093794 10.43656559 -16 7 C-14.37743711 3.98666891 -12.89925309 1.73867218 -10.25 -0.4375 C-6.77697223 -1.30575694 -3.45209867 -0.87897379 0 0 Z M-8.8125 5.125 C-11.15701894 7.76297104 -11.15701894 7.76297104 -11.5 10.625 C-11.13304144 13.00975269 -11.13304144 13.00975269 -9.875 14.875 C-7.9152361 16.29788457 -7.9152361 16.29788457 -4.875 15.75 C-2.12209159 15.29066476 -2.12209159 15.29066476 -1 14 C-0.92794489 12.31391034 -0.91613932 10.62499341 -0.9375 8.9375 C-0.95103516 7.55884766 -0.95103516 7.55884766 -0.96484375 6.15234375 C-0.97644531 5.44207031 -0.98804688 4.73179688 -1 4 C-4.71122841 2.62154373 -5.5668724 2.67274803 -8.8125 5.125 Z M0 16 C-0.99 17.485 -0.99 17.485 -2 19 C-1.01 18.67 -0.02 18.34 1 18 C0.67 17.34 0.34 16.68 0 16 Z M-3.875 24.3125 C-4.57367188 24.74175781 -5.27234375 25.17101562 -5.9921875 25.61328125 C-7.89838441 26.92981802 -9.42389989 28.30990522 -11 30 C-10.67 30.99 -10.34 31.98 -10 33 C-6.10375918 32.72816925 -4.24156679 32.18905227 -1.125 29.75 C1.22441494 27.20248649 1.22441494 27.20248649 1.3125 24.1875 C1.209375 23.465625 1.10625 22.74375 1 22 C-0.8488455 22 -2.34731411 23.36399172 -3.875 24.3125 Z " fill="#756E65" transform="translate(30,8)"/>
</svg>
