<?xml version="1.0" encoding="UTF-8"?>
<svg version="1.1" xmlns="http://www.w3.org/2000/svg" width="48" height="48">
<path d="M0 0 C0.66 0 1.32 0 2 0 C2.16950701 2.83318859 2.33567534 5.66650988 2.5 8.5 C2.54769531 9.29148437 2.59539063 10.08296875 2.64453125 10.8984375 C2.78032787 13.2651786 2.89702655 15.63161071 3 18 C3.03351562 18.75023438 3.06703125 19.50046875 3.1015625 20.2734375 C3.19960183 24.09697137 3.17748101 25.73377848 1 29 C0.34 29 -0.32 29 -1 29 C-1 28.34 -1 27.68 -1 27 C-16.84 28.485 -16.84 28.485 -33 30 C-33.66 28.35 -34.32 26.7 -35 25 C-34.34 25 -33.68 25 -33 25 C-33.00523682 24.3387915 -33.01047363 23.67758301 -33.01586914 22.99633789 C-33.03657656 20.01840149 -33.04964012 17.04048018 -33.0625 14.0625 C-33.07087891 13.02158203 -33.07925781 11.98066406 -33.08789062 10.90820312 C-33.09272461 9.42416992 -33.09272461 9.42416992 -33.09765625 7.91015625 C-33.10289307 6.99371338 -33.10812988 6.07727051 -33.11352539 5.13305664 C-33 3 -33 3 -32 2 C-29.72153942 1.85334394 -27.43879348 1.77247035 -25.15625 1.71875 C-24.12981384 1.69113586 -24.12981384 1.69113586 -23.0826416 1.66296387 C-20.14363705 1.58404755 -17.20439464 1.51646717 -14.26513672 1.44775391 C-12.12455568 1.39612228 -9.98417781 1.33883377 -7.84375 1.28125 C-6.55662109 1.25095703 -5.26949219 1.22066406 -3.94335938 1.18945312 C-1.11238054 1.3324561 -1.11238054 1.3324561 0 0 Z M-28 4 C-24.55687411 7.44312589 -22.11379744 9.79263746 -18.1875 12.3125 C-17.39730469 12.82425781 -16.60710938 13.33601563 -15.79296875 13.86328125 C-15.20128906 14.23839844 -14.60960937 14.61351562 -14 15 C-13.67 14.01 -13.34 13.02 -13 12 C-11.67661368 11.31379969 -10.34050052 10.65213539 -9 10 C-6.89872839 8.4227619 -4.97029933 6.74640168 -3 5 C-3 4.67 -3 4.34 -3 4 C-11.25 4 -19.5 4 -28 4 Z M-30 7 C-30.20852314 13.40629424 -30.1583195 18.92972642 -28 25 C-21.99431656 26.17806959 -16.61654155 25.76422836 -10.5625 25.0625 C-9.17901367 24.91264648 -9.17901367 24.91264648 -7.76757812 24.75976562 C-5.51086692 24.51421674 -3.25530156 24.25817549 -1 24 C-1 18.72 -1 13.44 -1 8 C-5.0991429 10.45948574 -7.90876942 12.64591953 -11.25390625 15.890625 C-13 17 -13 17 -14.828125 16.95703125 C-17.95771152 15.57798683 -20.51920966 13.53930168 -23.1875 11.4375 C-26.35341445 8.49396642 -26.35341445 8.49396642 -30 7 Z " fill="#787067" transform="translate(40,10)"/>
</svg>
