<?xml version="1.0" encoding="UTF-8"?>
<svg version="1.1" xmlns="http://www.w3.org/2000/svg" width="48" height="48">
<path d="M0 0 C1.80791016 0.00966797 1.80791016 0.00966797 3.65234375 0.01953125 C5.53373047 0.04466797 5.53373047 0.04466797 7.453125 0.0703125 C8.72285156 0.07933594 9.99257813 0.08835937 11.30078125 0.09765625 C14.43508593 0.12122245 17.56901041 0.15412418 20.703125 0.1953125 C22.87054534 7.75073944 24.13577992 14.58778315 23.890625 22.4453125 C23.87032227 23.72341797 23.87032227 23.72341797 23.84960938 25.02734375 C23.81495302 27.08362104 23.76118487 29.1395629 23.703125 31.1953125 C16.78061619 34.37966655 10.93518045 35.34356196 3.265625 35.3828125 C2.00878906 35.39699219 0.75195312 35.41117188 -0.54296875 35.42578125 C-4.49761632 35.18298811 -7.55219045 34.41777081 -11.296875 33.1953125 C-12.48575278 28.26556928 -12.74560646 23.30222358 -13.046875 18.2578125 C-13.14935547 16.93620117 -13.14935547 16.93620117 -13.25390625 15.58789062 C-13.56100845 10.3317184 -13.45888758 6.66550285 -10.296875 2.1953125 C-6.90911638 -0.06174796 -4.00536673 -0.03778648 0 0 Z M-7.296875 7.1953125 C-8.83290209 14.26103713 -9.33143645 22.51645075 -5.76953125 28.95703125 C-3.36627654 31.58013831 -3.36627654 31.58013831 0.6015625 31.5703125 C2.09576458 31.4722886 3.58834656 31.34633815 5.078125 31.1953125 C5.820625 31.15019531 6.563125 31.10507812 7.328125 31.05859375 C11.98568621 30.68829295 15.80329272 29.95593566 19.703125 27.1953125 C22.13221032 20.25209009 20.8268233 12.7055946 17.703125 6.1953125 C15.28496334 3.77715084 9.01534681 5.00984231 5.765625 5.0078125 C4.73759766 4.99556641 3.70957031 4.98332031 2.65039062 4.97070312 C1.66876953 4.96876953 0.68714844 4.96683594 -0.32421875 4.96484375 C-1.22906006 4.96073486 -2.13390137 4.95662598 -3.06616211 4.95239258 C-5.50106278 4.98189953 -5.50106278 4.98189953 -7.296875 7.1953125 Z " fill="#787066" transform="translate(19.296875,7.8046875)"/>
<path d="M0 0 C2.3125 1.4375 2.3125 1.4375 3.125 4.0625 C3.186875 4.84625 3.24875 5.63 3.3125 6.4375 C-0.1525 7.9225 -0.1525 7.9225 -3.6875 9.4375 C-5.0075 8.4475 -6.3275 7.4575 -7.6875 6.4375 C-7.20601852 1.86342593 -7.20601852 1.86342593 -4.9375 0 C-2.6875 -0.5625 -2.6875 -0.5625 0 0 Z " fill="#777067" transform="translate(28.6875,20.5625)"/>
</svg>
