<?xml version="1.0" encoding="UTF-8"?>
<svg version="1.1" xmlns="http://www.w3.org/2000/svg" width="48" height="48">
<path d="M0 0 C0.75023438 -0.02578125 1.50046875 -0.0515625 2.2734375 -0.078125 C5.41225202 0.35984912 7.11660855 1.30946916 9.625 3.25 C11.25 6.02734375 11.25 6.02734375 12.625 9.1875 C14.64167376 13.81095376 16.47301072 16.33939941 20.625 19.25 C20.26094751 21.95438996 19.94357318 22.99406383 17.77734375 24.734375 C17.04644531 25.15203125 16.31554688 25.5696875 15.5625 26 C14.82902344 26.42796875 14.09554687 26.8559375 13.33984375 27.296875 C12.77394531 27.61140625 12.20804688 27.9259375 11.625 28.25 C12.15609375 28.61351563 12.6871875 28.97703125 13.234375 29.3515625 C17.77644754 32.58405938 20.85559286 35.4035375 23.625 40.25 C22.635 40.25 21.645 40.25 20.625 40.25 C20.625 39.59 20.625 38.93 20.625 38.25 C19.635 38.25 18.645 38.25 17.625 38.25 C17.0371875 37.13625 17.0371875 37.13625 16.4375 36 C14.19104815 32.59159029 12.07570906 31.81374335 8.3671875 30.33984375 C6.625 29.25 6.625 29.25 5.625 25.25 C0.675 25.745 0.675 25.745 -4.375 26.25 C-4.375 27.57 -4.375 28.89 -4.375 30.25 C-6.0546875 32.06640625 -6.0546875 32.06640625 -8.25 33.8125 C-10.87760472 35.9268271 -12.47597905 37.40146857 -14.375 40.25 C-15.695 39.92 -17.015 39.59 -18.375 39.25 C-15.375 36.25 -12.375 33.25 -9.375 30.25 C-9.98988281 30.14042969 -10.60476563 30.03085937 -11.23828125 29.91796875 C-12.45064453 29.68013672 -12.45064453 29.68013672 -13.6875 29.4375 C-14.48800781 29.28667969 -15.28851563 29.13585937 -16.11328125 28.98046875 C-18.60945587 28.17427764 -19.69922106 27.22947998 -21.375 25.25 C-20 22.75 -20 22.75 -18.375 20.25 C-17.715 20.25 -17.055 20.25 -16.375 20.25 C-16.19324219 19.51394531 -16.01148438 18.77789063 -15.82421875 18.01953125 C-12.63320017 5.63183347 -12.63320017 5.63183347 -7.375 1.25 C-4.64682878 0.34060959 -2.82790223 0.05790926 0 0 Z M-0.375 8.25 C-3.015 11.22 -5.655 14.19 -8.375 17.25 C-7.03936384 22.19463635 -7.03936384 22.19463635 -4.375 23.25 C1.88907421 23.77200618 4.72322453 23.17142038 9.625 19.25 C7.91156717 14.1097015 3.86816312 11.43237234 -0.375 8.25 Z " fill="#797268" transform="translate(23.375,7.75)"/>
</svg>
