<?xml version="1.0" encoding="UTF-8"?>
<svg version="1.1" xmlns="http://www.w3.org/2000/svg" width="48" height="48">
<path d="M0 0 C1.77697266 -0.01836914 1.77697266 -0.01836914 3.58984375 -0.03710938 C4.73324219 -0.03904297 5.87664063 -0.04097656 7.0546875 -0.04296875 C8.09866699 -0.04707764 9.14264648 -0.05118652 10.21826172 -0.05541992 C13.22124131 0.19554301 15.40579975 0.92369487 18.125 2.1875 C19.25684584 9.6073783 19.25684584 9.6073783 18.5 12.9375 C17.84449718 15.30011002 17.84449718 15.30011002 19.5625 17.375 C20.078125 17.973125 20.59375 18.57125 21.125 19.1875 C21.125 19.8475 21.125 20.5075 21.125 21.1875 C20.465 21.1875 19.805 21.1875 19.125 21.1875 C17.93148688 24.53079469 17.93148688 24.53079469 17.125 28.1875 C17.785 29.1775 18.445 30.1675 19.125 31.1875 C19.45227273 36.53295455 19.45227273 36.53295455 18.125 39.1875 C17.465 39.1875 16.805 39.1875 16.125 39.1875 C16.125 39.8475 16.125 40.5075 16.125 41.1875 C10.87457952 42.93764016 5.30822851 42.45699743 -0.1875 42.5 C-2.02344727 42.54350586 -2.02344727 42.54350586 -3.89648438 42.58789062 C-15.02489575 42.66655802 -15.02489575 42.66655802 -19.875 38.1875 C-19.69582031 37.58421875 -19.51664063 36.9809375 -19.33203125 36.359375 C-18.69205039 33.95459845 -18.14238685 31.66298472 -17.875 29.1875 C-19.2666876 27.05405232 -19.2666876 27.05405232 -20.875 25.1875 C-20.67862018 21.58720336 -20.14538247 18.79941822 -18.6875 15.5 C-17.59065252 13.21849594 -17.59065252 13.21849594 -18.75 11.1875 C-19.12125 10.5275 -19.4925 9.8675 -19.875 9.1875 C-20.25 6.625 -20.25 6.625 -19.875 4.1875 C-14.32940345 -1.16686908 -7.17827706 0.00388015 0 0 Z M-15.875 5.1875 C-15.875 6.5075 -15.875 7.8275 -15.875 9.1875 C-5.38552868 10.01294266 4.63088146 10.26851063 15.125 9.1875 C15.455 8.1975 15.785 7.2075 16.125 6.1875 C15.795 5.5275 15.465 4.8675 15.125 4.1875 C-0.40557927 3.97991268 -0.40557927 3.97991268 -15.875 5.1875 Z M-5.9375 14.5 C-6.98035156 14.55800781 -8.02320313 14.61601562 -9.09765625 14.67578125 C-12.22653429 15.25226933 -13.71853278 15.84486295 -15.875 18.1875 C-16.20925735 20.81375139 -16.20925735 20.81375139 -15.875 23.1875 C0.5730655 24.82494188 0.5730655 24.82494188 16.125 20.1875 C15.61896008 18.01875748 15.12516187 16.18782373 14.125 14.1875 C7.42879123 14.08886517 0.75019463 14.12087899 -5.9375 14.5 Z M-13.875 30.1875 C-14.205 31.5075 -14.535 32.8275 -14.875 34.1875 C-6.94634152 37.66640117 1.38731458 40.07796476 10.125 39.1875 C12.74408771 37.78199633 12.74408771 37.78199633 14.125 35.1875 C13.97887105 31.49317489 13.97887105 31.49317489 13.125 28.1875 C3.84354592 27.95926752 -4.74470027 28.28322892 -13.875 30.1875 Z " fill="#7A7266" transform="translate(25.875,4.8125)"/>
<path d="M0 0 C2.31 0 4.62 0 7 0 C6.01 0.495 6.01 0.495 5 1 C4.67 1.99 4.34 2.98 4 4 C2.68 3.34 1.36 2.68 0 2 C0 1.34 0 0.68 0 0 Z " fill="#54413B" transform="translate(12,14)"/>
</svg>
