<?xml version="1.0" encoding="UTF-8"?>
<svg version="1.1" xmlns="http://www.w3.org/2000/svg" width="48" height="48">
<path d="M0 0 C4.03843343 2.60254599 6.29289779 5.25369336 7.8125 9.8125 C8.20640983 15.03180524 7.68948427 18.39427416 4.8125 22.8125 C2.625 24.1875 2.625 24.1875 0.8125 24.8125 C2.06714573 28.57643718 3.14758499 28.79125126 6.5625 30.625 C11.07243954 33.22887627 13.96435867 35.44534996 16.8125 39.8125 C16.8125 41.1325 16.8125 42.4525 16.8125 43.8125 C0.9725 43.8125 -14.8675 43.8125 -31.1875 43.8125 C-31.1875 38.8125 -31.1875 38.8125 -29.7890625 36.8984375 C-24.60338422 32.40964879 -19.88479654 30.25351667 -13.1875 28.8125 C-13.1875 27.8225 -13.1875 26.8325 -13.1875 25.8125 C-13.93 25.60625 -14.6725 25.4 -15.4375 25.1875 C-19.21380521 23.2993474 -20.35229961 21.61884156 -22.1875 17.8125 C-22.90906559 13.69690366 -23.11999452 9.78889326 -21.3046875 5.94140625 C-16.09577679 -0.97506128 -7.90731179 -2.94586126 0 0 Z M-13.1875 6.8125 C-13.8475 7.4725 -14.5075 8.1325 -15.1875 8.8125 C-14.8689823 10.92070797 -14.8689823 10.92070797 -14.1875 12.8125 C-12.5375 12.4825 -10.8875 12.1525 -9.1875 11.8125 C-9.1875 10.4925 -9.1875 9.1725 -9.1875 7.8125 C-11.07929203 7.1310177 -11.07929203 7.1310177 -13.1875 6.8125 Z M-2.1875 5.8125 C-3.1775 6.4725 -4.1675 7.1325 -5.1875 7.8125 C-5.1875 9.1325 -5.1875 10.4525 -5.1875 11.8125 C-3.53135343 12.19468767 -1.86292976 12.52645102 -0.1875 12.8125 C1.10883621 11.74604885 1.10883621 11.74604885 0.875 9.25 C0.854375 8.445625 0.83375 7.64125 0.8125 6.8125 C-0.1775 6.4825 -1.1675 6.1525 -2.1875 5.8125 Z " fill="#787066" transform="translate(31.1875,4.1875)"/>
</svg>
