<?xml version="1.0" encoding="UTF-8"?>
<svg version="1.1" xmlns="http://www.w3.org/2000/svg" width="48" height="48">
<path d="M0 0 C1.5159375 -0.02126953 1.5159375 -0.02126953 3.0625 -0.04296875 C6.10368918 0.19563519 8.21455084 1.00233366 11 2.1875 C10.99476318 2.98446289 10.98952637 3.78142578 10.98413086 4.60253906 C10.963341 8.21418469 10.95033339 11.82581771 10.9375 15.4375 C10.92912109 16.69175781 10.92074219 17.94601563 10.91210938 19.23828125 C10.90888672 20.44355469 10.90566406 21.64882813 10.90234375 22.890625 C10.89710693 24.00083008 10.89187012 25.11103516 10.88647461 26.25488281 C10.98341507 28.75907379 11.26769724 30.8056156 12 33.1875 C6.87594378 37.63073756 0.91237301 37.28106946 -5.61328125 37.125 C-11.3078351 36.67763734 -11.3078351 36.67763734 -13.59008789 35.06152344 C-16.53210455 31.15106112 -15.47611513 25.44381266 -15.44604492 20.73583984 C-15.43752697 18.69396429 -15.46630834 16.65488085 -15.49804688 14.61328125 C-15.49740234 13.32808594 -15.49675781 12.04289062 -15.49609375 10.71875 C-15.49794678 9.53861328 -15.4997998 8.35847656 -15.50170898 7.14257812 C-15 4.1875 -15 4.1875 -13.11743164 2.3215332 C-8.91883129 0.07288814 -4.68811163 0.02989867 0 0 Z M-9 6.1875 C-11.67690393 13.25401892 -12.03697123 21.91958665 -10 29.1875 C-7.74971671 29.04610519 -5.49977794 28.89921997 -3.25 28.75 C-1.99703125 28.66878906 -0.7440625 28.58757813 0.546875 28.50390625 C3.20546455 28.26030246 5.44934945 27.87402567 8 27.1875 C8.08120751 24.29109882 8.14059421 21.39699088 8.1875 18.5 C8.21263672 17.68337891 8.23777344 16.86675781 8.26367188 16.02539062 C8.32173421 11.2449247 8.16104605 8.04117618 5 4.1875 C-0.44599978 0.55683348 -4.29509259 1.79625308 -9 6.1875 Z M-3 30.1875 C-3 30.5175 -3 30.8475 -3 31.1875 C-1.02 31.1875 0.96 31.1875 3 31.1875 C3 30.8575 3 30.5275 3 30.1875 C1.02 30.1875 -0.96 30.1875 -3 30.1875 Z " fill="#787067" transform="translate(28,5.8125)"/>
</svg>
